<svg width="20" height="23" viewBox="0 0 20 23" fill="none" xmlns="http://www.w3.org/2000/svg">
<path fill-rule="evenodd" clip-rule="evenodd" d="M5 0.756348C5.41421 0.756348 5.75 1.09213 5.75 1.50635V2.38819C6.89965 2.30624 8.28384 2.30624 9.94652 2.30625H9.9466H10.0534H10.0535C11.7162 2.30624 13.1003 2.30624 14.25 2.38819V1.50635C14.25 1.09213 14.5858 0.756348 15 0.756348C15.4142 0.756348 15.75 1.09213 15.75 1.50635V2.57196C16.8359 2.77923 17.7188 3.15825 18.4334 3.87289C19.2658 4.70527 19.6428 5.76576 19.8235 7.1097C20 8.42271 20 10.1055 20 12.2529V12.3596C20 14.507 20 16.1898 19.8235 17.5028C19.6428 18.8467 19.2658 19.9073 18.4334 20.7396C17.601 21.572 16.5405 21.949 15.1966 22.1298C13.8835 22.3062 12.2007 22.3062 10.0534 22.3062H9.9466C7.79928 22.3062 6.11646 22.3062 4.80345 22.1298C3.45951 21.949 2.39902 21.572 1.56664 20.7396C0.734261 19.9073 0.3572 18.8467 0.176512 17.5028C-1.58678e-05 16.1898 -8.78042e-06 14.507 1.26254e-07 12.3597V12.3596V12.2529V12.2528C-8.78042e-06 10.1055 -1.58613e-05 8.42269 0.176512 7.1097C0.3572 5.76576 0.734261 4.70527 1.56664 3.87289C2.28128 3.15825 3.16406 2.77923 4.25 2.57196V1.50635C4.25 1.09213 4.58579 0.756348 5 0.756348ZM15 17.0063C15.5523 17.0063 16 16.5586 16 16.0063C16 15.454 15.5523 15.0063 15 15.0063C14.4477 15.0063 14 15.454 14 16.0063C14 16.5586 14.4477 17.0063 15 17.0063ZM16 12.0063C16 12.5586 15.5523 13.0063 15 13.0063C14.4477 13.0063 14 12.5586 14 12.0063C14 11.454 14.4477 11.0063 15 11.0063C15.5523 11.0063 16 11.454 16 12.0063ZM10 17.0063C10.5523 17.0063 11 16.5586 11 16.0063C11 15.454 10.5523 15.0063 10 15.0063C9.4477 15.0063 9 15.454 9 16.0063C9 16.5586 9.4477 17.0063 10 17.0063ZM11 12.0063C11 12.5586 10.5523 13.0063 10 13.0063C9.4477 13.0063 9 12.5586 9 12.0063C9 11.454 9.4477 11.0063 10 11.0063C10.5523 11.0063 11 11.454 11 12.0063ZM5 17.0063C5.55228 17.0063 6 16.5586 6 16.0063C6 15.454 5.55228 15.0063 5 15.0063C4.44772 15.0063 4 15.454 4 16.0063C4 16.5586 4.44772 17.0063 5 17.0063ZM6 12.0063C6 12.5586 5.55228 13.0063 5 13.0063C4.44772 13.0063 4 12.5586 4 12.0063C4 11.454 4.44772 11.0063 5 11.0063C5.55228 11.0063 6 11.454 6 12.0063ZM4.98938 3.86566C3.80016 4.02555 3.08321 4.32964 2.5533 4.85955C2.04437 5.36847 1.74374 6.04991 1.57909 7.15654L1.6 7.15625H18.4L18.4209 7.15654C18.2563 6.04991 17.9557 5.36847 17.4467 4.85955C16.9167 4.32964 16.1998 4.02555 15.0106 3.86566C13.8013 3.70308 12.2123 3.7016 10 3.7016C7.78769 3.7016 6.19866 3.70308 4.98938 3.86566ZM1.39535 12.3063C1.39535 10.8312 1.39601 9.63322 1.44464 8.64014C1.49476 8.6507 1.54673 8.65625 1.6 8.65625H18.4C18.4533 8.65625 18.5052 8.6507 18.5554 8.64014C18.604 9.63322 18.6047 10.8312 18.6047 12.3063C18.6047 14.5185 18.6032 16.1076 18.4406 17.3169C18.2807 18.5061 17.9767 19.223 17.4467 19.7529C16.9167 20.2829 16.1998 20.587 15.0106 20.7468C13.8013 20.9094 12.2123 20.9109 10 20.9109C7.78769 20.9109 6.19866 20.9094 4.98938 20.7468C3.80016 20.587 3.08321 20.2829 2.5533 19.7529C2.02339 19.223 1.7193 18.5061 1.55941 17.3169C1.39683 16.1076 1.39535 14.5185 1.39535 12.3063Z" fill="url(#paint0_linear_1179_1267)"/>
<defs>
<linearGradient id="paint0_linear_1179_1267" x1="1.2" y1="2.30635" x2="20" y2="23.5063" gradientUnits="userSpaceOnUse">
<stop stop-color="#37BCFF"/>
<stop offset="1" stop-color="#4F7DF8"/>
</linearGradient>
</defs>
</svg>
