<svg width="25" height="24" viewBox="0 0 25 24" fill="none" xmlns="http://www.w3.org/2000/svg">
<path d="M23.6059 8.51069C23.4445 7.9825 22.8855 7.68514 22.3573 7.84651C21.8292 8.00788 21.5318 8.56687 21.6932 9.09506L23.6059 8.51069ZM16.8062 3.18013C17.294 3.43913 17.8994 3.25365 18.1584 2.76586C18.4174 2.27807 18.2319 1.67268 17.7441 1.41369L16.8062 3.18013ZM7.21013 10.0867C6.80434 9.71205 6.17168 9.7373 5.79704 10.1431C5.4224 10.5489 5.44765 11.1815 5.85344 11.5562L7.21013 10.0867ZM12.0636 15.9286L11.3852 16.6633C11.5922 16.8544 11.8702 16.9493 12.1508 16.9248C12.4314 16.9002 12.6887 16.7584 12.8593 16.5342L12.0636 15.9286ZM23.9229 1.99853C24.2574 1.55906 24.1723 0.931639 23.7328 0.597146C23.2933 0.262652 22.6659 0.347752 22.3314 0.78722L23.9229 1.99853ZM21.6932 9.09506C22.3691 11.3076 22.2526 13.6845 21.3633 15.8214L23.2098 16.5899C24.2778 14.0236 24.4178 11.1683 23.6059 8.51069L21.6932 9.09506ZM21.3633 15.8214C20.474 17.9584 18.8664 19.724 16.813 20.8163L17.7522 22.582C20.2127 21.2732 22.1419 19.156 23.2098 16.5899L21.3633 15.8214ZM16.813 20.8163C14.7595 21.9086 12.388 22.2594 10.1029 21.8084L9.71566 23.7705C12.4518 24.3106 15.2919 23.8907 17.7522 22.582L16.813 20.8163ZM10.1029 21.8084C7.81791 21.3574 5.76203 20.1328 4.28496 18.3447L2.74301 19.6184C4.51505 21.7636 6.97944 23.2304 9.71566 23.7705L10.1029 21.8084ZM4.28496 18.3447C2.80798 16.5567 2.00089 14.3158 2 12.0038L8.9407e-07 12.0046C0.00106341 14.7824 0.970875 17.4731 2.74301 19.6184L4.28496 18.3447ZM2 12.0038C1.99912 9.69182 2.8045 7.45028 4.2801 5.6612L2.73719 4.38864C0.966692 6.53526 -0.00106168 9.22674 8.9407e-07 12.0046L2 12.0038ZM4.2801 5.6612C5.7558 3.872 7.81075 2.64586 10.0954 2.19312L9.70667 0.23127C6.97086 0.773404 4.50759 2.24213 2.73719 4.38864L4.2801 5.6612ZM10.0954 2.19312C12.3802 1.74037 14.7519 2.08938 16.8062 3.18013L17.7441 1.41369C15.2828 0.106823 12.4424 -0.310852 9.70667 0.23127L10.0954 2.19312ZM5.85344 11.5562L11.3852 16.6633L12.7419 15.1938L7.21013 10.0867L5.85344 11.5562ZM12.8593 16.5342L23.9229 1.99853L22.3314 0.78722L11.2678 15.3229L12.8593 16.5342Z" fill="url(#paint0_linear_1291_542)"/>
<defs>
<linearGradient id="paint0_linear_1291_542" x1="22.1327" y1="1" x2="0.429912" y2="1.71955" gradientUnits="userSpaceOnUse">
<stop stop-color="#37BCFF"/>
<stop offset="0.515" stop-color="#4F7DF8"/>
<stop offset="1" stop-color="#9502E3"/>
</linearGradient>
</defs>
</svg>
