<svg width="14" height="14" viewBox="0 0 14 14" fill="none" xmlns="http://www.w3.org/2000/svg">
<path fill-rule="evenodd" clip-rule="evenodd" d="M5.57742 12.8964H8.12709C9.34253 12.8964 10.206 12.8953 10.8611 12.8073C11.5024 12.7211 11.8719 12.5594 12.1416 12.2896C12.4114 12.0198 12.5731 11.6503 12.6593 11.0091C12.7474 10.354 12.7484 9.49051 12.7484 8.27507V7.99646C12.7484 7.01736 12.7415 6.55326 12.6376 6.20347H10.6766L10.6424 6.20347C9.92035 6.20349 9.33027 6.2035 8.8644 6.14086C8.37744 6.0754 7.95526 5.93371 7.61824 5.59673C7.28126 5.25972 7.13955 4.83752 7.07409 4.35056C7.01146 3.8847 7.01147 3.29462 7.01148 2.57254L7.01149 2.53831V1.15774C6.71803 1.10789 6.31799 1.10411 5.59641 1.10411C4.37468 1.10411 3.50628 1.10512 2.84789 1.19323C2.2029 1.27956 1.83228 1.44148 1.56289 1.71087C1.29313 1.98063 1.13143 2.35011 1.04521 2.99141C0.957143 3.64646 0.956129 4.50995 0.956129 5.7254V8.27507C0.956129 9.49051 0.957143 10.354 1.04521 11.0091C1.13143 11.6503 1.29313 12.0198 1.56289 12.2896C1.83265 12.5594 2.20213 12.7211 2.84343 12.8073C3.49848 12.8953 4.36197 12.8964 5.57742 12.8964ZM7.96761 1.65183V2.53831C7.96761 3.30303 7.96863 3.82848 8.02169 4.22317C8.03741 4.34009 8.05694 4.43872 8.08022 4.52303C8.13276 4.71338 8.20439 4.83069 8.29429 4.92061C8.42406 5.05035 8.61089 5.14205 8.9918 5.19326C9.38649 5.24633 9.91193 5.24734 10.6766 5.24734H11.964C11.7751 5.06405 11.533 4.84444 11.2186 4.56148L8.69516 2.29042C8.38571 2.0119 8.15541 1.80633 7.96761 1.65183ZM8.12709 13.8525H5.57742H5.54126C4.36995 13.8525 3.44213 13.8525 2.71603 13.7549C1.9687 13.6544 1.36383 13.4427 0.886803 12.9657C0.409784 12.4887 0.198085 11.8838 0.0976084 11.1364C-1.79027e-05 10.4103 -9.89698e-06 9.48242 2.04861e-07 8.31097L4.11025e-07 8.27507V5.7254L2.04861e-07 5.6895C-9.89698e-06 4.51804 -1.79027e-05 3.59018 0.0976084 2.86401C0.198085 2.11668 0.409784 1.51181 0.886803 1.03478C1.3642 0.557396 1.9711 0.345926 2.72106 0.245551C3.45024 0.147963 4.3827 0.147971 5.56053 0.147981L5.59641 0.147982L5.68927 0.147965C6.57183 0.147729 7.14204 0.147577 7.66681 0.34896C8.19163 0.550335 8.61354 0.930255 9.2663 1.51805L9.33481 1.57974L11.8582 3.85079L11.9376 3.92228C12.6922 4.60099 13.1802 5.03983 13.4426 5.62913C13.705 6.21841 13.7048 6.87467 13.7045 7.88961L13.7045 7.99646V8.27507V8.31124C13.7045 9.48253 13.7045 10.4104 13.6069 11.1364C13.5064 11.8838 13.2947 12.4887 12.8177 12.9657C12.3407 13.4427 11.7358 13.6544 10.9885 13.7549C10.2624 13.8525 9.3346 13.8525 8.1633 13.8525H8.12709ZM3.02768 8.11573C2.76365 8.11573 2.54961 8.32977 2.54961 8.59379C2.54961 8.85782 2.76365 9.07186 3.02768 9.07186H8.12703C8.39106 9.07186 8.6051 8.85782 8.6051 8.59379C8.6051 8.32977 8.39106 8.11573 8.12703 8.11573H3.02768ZM2.54955 10.8247C2.54955 10.5607 2.76358 10.3467 3.02761 10.3467H6.53341C6.79744 10.3467 7.01148 10.5607 7.01148 10.8247C7.01148 11.0888 6.79744 11.3028 6.53341 11.3028H3.02761C2.76358 11.3028 2.54955 11.0888 2.54955 10.8247Z" fill="#0351C1"/>
</svg>
