<svg width="190" height="51" viewBox="0 0 190 51" fill="none" xmlns="http://www.w3.org/2000/svg">
<g clip-path="url(#clip0_1370_2679)">
<path d="M82.7062 46.7149C82.4378 46.5981 82.2125 46.4345 82.0298 46.2224C81.8471 46.0109 81.7081 45.7575 81.6128 45.4621C81.5175 45.1674 81.4702 44.8408 81.4702 44.4838C81.4702 44.1267 81.5175 43.8007 81.6128 43.5054C81.7081 43.2106 81.8471 42.9572 82.0298 42.7451C82.2125 42.5336 82.4384 42.3694 82.7062 42.2526C82.9746 42.1364 83.2808 42.0776 83.6253 42.0776C83.9698 42.0776 84.2783 42.1358 84.5456 42.2526C84.8128 42.3694 85.038 42.533 85.2208 42.7451C85.4035 42.9566 85.5425 43.21 85.6378 43.5054C85.733 43.8001 85.7804 44.1267 85.7804 44.4838C85.7804 44.8408 85.733 45.1668 85.6378 45.4621C85.5425 45.7569 85.4035 46.0103 85.2208 46.2224C85.038 46.4339 84.8128 46.5981 84.5456 46.7149C84.2783 46.8312 83.9716 46.8899 83.6253 46.8899C83.279 46.8899 82.9746 46.8318 82.7062 46.7149ZM84.3035 46.2099C84.497 46.12 84.6576 45.9936 84.7864 45.83C84.9146 45.6664 85.0111 45.4705 85.0764 45.2417C85.1417 45.0128 85.1741 44.7606 85.1741 44.485C85.1741 44.2094 85.1417 43.9571 85.0764 43.7282C85.0111 43.4994 84.9146 43.3035 84.7864 43.1399C84.6582 42.9763 84.497 42.8499 84.3035 42.7601C84.11 42.6702 83.8841 42.6252 83.6253 42.6252C83.3665 42.6252 83.1412 42.6702 82.9489 42.7601C82.7565 42.8499 82.596 42.9763 82.4678 43.1399C82.3396 43.3035 82.2425 43.4994 82.1778 43.7282C82.1125 43.9571 82.0789 44.2094 82.0765 44.485C82.0765 44.7606 82.1089 45.0128 82.173 45.2417C82.2371 45.4705 82.3336 45.6664 82.463 45.83C82.5924 45.9936 82.7536 46.12 82.9471 46.2099C83.1406 46.2997 83.3665 46.3447 83.6253 46.3447C83.8841 46.3447 84.11 46.2997 84.3035 46.2099Z" fill="#1D1D1B"/>
<path d="M86.7429 46.7934V42.1753H87.3169V43.9775H88.5098C88.7602 43.9775 88.9813 44.0122 89.1736 44.0817C89.3659 44.1512 89.5277 44.2477 89.6577 44.3717C89.7883 44.4957 89.8866 44.6437 89.9525 44.8157C90.019 44.9876 90.0519 45.1764 90.0519 45.3819C90.0519 45.5874 90.019 45.7791 89.9525 45.951C89.886 46.123 89.7877 46.2716 89.6577 46.3968C89.5271 46.522 89.3659 46.6191 89.1736 46.6886C88.9813 46.7581 88.7596 46.7928 88.5098 46.7928H86.7429V46.7934ZM86.7429 42.1753H89.6775V42.7175H86.7429V42.1753ZM88.4457 46.2512C88.6212 46.2512 88.7728 46.2296 88.901 46.1871C89.0292 46.1446 89.1359 46.0846 89.2203 46.0073C89.3048 45.9301 89.3671 45.839 89.4079 45.7329C89.4486 45.6269 89.469 45.5113 89.469 45.3848C89.469 45.2584 89.4486 45.1428 89.4079 45.0368C89.3671 44.9307 89.3048 44.8396 89.2203 44.7623C89.1359 44.6851 89.0298 44.6257 88.901 44.5826C88.7728 44.5401 88.6206 44.5185 88.4457 44.5185H87.3169V46.2506H88.4457V46.2512Z" fill="#1D1D1B"/>
<path d="M91.0146 46.7934V42.1753H92.7623C93.0146 42.1753 93.238 42.2088 93.4327 42.2765C93.6275 42.3436 93.7904 42.4407 93.9216 42.5671C94.0529 42.6935 94.1529 42.8463 94.2218 43.0255C94.2901 43.2052 94.3243 43.4071 94.3243 43.6318C94.3243 43.8565 94.2901 44.0584 94.2218 44.2381C94.1535 44.4178 94.0529 44.5706 93.9204 44.6964C93.788 44.8229 93.6245 44.9193 93.4298 44.9864C93.235 45.0535 93.0128 45.0877 92.7629 45.0877H91.5892V46.794H91.0152L91.0146 46.7934ZM91.5886 44.5455H92.7593C92.9151 44.5455 93.0541 44.5245 93.1763 44.4832C93.2979 44.4412 93.401 44.3819 93.4843 44.3034C93.5676 44.2255 93.6311 44.1303 93.6748 44.0182C93.7185 43.9062 93.7407 43.7774 93.7407 43.6318C93.7407 43.4862 93.7185 43.3604 93.6748 43.2471C93.6311 43.1339 93.5676 43.038 93.4843 42.9602C93.401 42.8823 93.2985 42.8224 93.1763 42.7804C93.0547 42.7385 92.9157 42.7181 92.7593 42.7181H91.5886V44.5461V44.5455Z" fill="#1D1D1B"/>
<path d="M98.8651 46.7897H98.2588L96.7963 42.5053H97.021L95.5585 46.7897H94.9521L96.5428 42.1716H97.2774L98.8651 46.7897ZM95.7095 45.1733H98.1084V45.7089H95.7095V45.1733Z" fill="#1D1D1B"/>
<path d="M102.993 45.4687C102.993 45.7059 102.95 45.9132 102.863 46.0912C102.776 46.2685 102.656 46.4165 102.502 46.5351C102.348 46.6538 102.167 46.7424 101.957 46.8012C101.747 46.8599 101.52 46.8892 101.274 46.8892C101.041 46.8892 100.822 46.8617 100.617 46.8071C100.411 46.7526 100.228 46.6687 100.065 46.5555C99.9027 46.4423 99.7649 46.2991 99.6511 46.1259C99.5378 45.9528 99.4546 45.7485 99.4006 45.5136L99.9908 45.4208C100.038 45.5723 100.097 45.7065 100.167 45.8234C100.238 45.9402 100.325 46.0367 100.43 46.1134C100.535 46.19 100.658 46.2488 100.799 46.2883C100.94 46.3278 101.103 46.3476 101.287 46.3476C101.442 46.3476 101.587 46.3296 101.721 46.2931C101.855 46.2565 101.972 46.2032 102.07 46.1325C102.17 46.0618 102.248 45.9726 102.305 45.8647C102.361 45.7569 102.39 45.631 102.39 45.4879C102.39 45.3596 102.366 45.2464 102.318 45.1481C102.27 45.0499 102.205 44.9678 102.122 44.9031C102.04 44.8378 101.942 44.7887 101.83 44.7557C101.718 44.7228 101.598 44.706 101.469 44.706H100.652V44.1578H101.437C101.569 44.1578 101.686 44.1392 101.786 44.1015C101.887 44.0643 101.972 44.0116 102.042 43.9445C102.111 43.8774 102.164 43.7977 102.2 43.7054C102.237 43.6138 102.255 43.5131 102.255 43.4041C102.255 43.2735 102.227 43.1596 102.173 43.0626C102.118 42.9655 102.045 42.8846 101.953 42.8205C101.861 42.7564 101.753 42.7079 101.631 42.6743C101.508 42.6414 101.377 42.6246 101.238 42.6246C101.082 42.6246 100.939 42.6438 100.811 42.6821C100.683 42.7205 100.57 42.778 100.472 42.8535C100.375 42.9296 100.294 43.0248 100.229 43.1387C100.163 43.2531 100.114 43.3861 100.079 43.5377L99.4731 43.4316C99.5289 43.192 99.6115 42.9877 99.7218 42.8175C99.832 42.6474 99.9638 42.5078 100.118 42.3975C100.272 42.2873 100.444 42.207 100.635 42.1573C100.827 42.107 101.031 42.0818 101.25 42.0818C101.468 42.0818 101.688 42.1099 101.883 42.1669C102.078 42.2238 102.247 42.3077 102.39 42.4185C102.532 42.5299 102.644 42.6683 102.725 42.8337C102.806 42.9997 102.846 43.1926 102.846 43.4125C102.846 43.5365 102.829 43.6539 102.794 43.7653C102.758 43.8768 102.71 43.9774 102.649 44.0685C102.588 44.1596 102.516 44.2375 102.433 44.3028C102.35 44.3681 102.26 44.419 102.163 44.455V44.41C102.266 44.4274 102.367 44.4657 102.466 44.5256C102.566 44.5856 102.655 44.6617 102.732 44.7551C102.81 44.848 102.873 44.9552 102.92 45.0757C102.967 45.1967 102.991 45.3273 102.991 45.4687H102.993Z" fill="#1D1D1B"/>
<path d="M104.967 46.7149C104.698 46.5981 104.473 46.4345 104.29 46.2224C104.108 46.0109 103.969 45.7575 103.873 45.4621C103.778 45.1674 103.731 44.8408 103.731 44.4838C103.731 44.1267 103.778 43.8007 103.873 43.5054C103.969 43.2106 104.108 42.9572 104.29 42.7451C104.473 42.5336 104.699 42.3694 104.967 42.2526C105.235 42.1364 105.541 42.0776 105.886 42.0776C106.23 42.0776 106.539 42.1358 106.806 42.2526C107.073 42.3694 107.299 42.533 107.481 42.7451C107.664 42.9566 107.803 43.21 107.898 43.5054C107.994 43.8001 108.041 44.1267 108.041 44.4838C108.041 44.8408 107.994 45.1668 107.898 45.4621C107.803 45.7569 107.664 46.0103 107.481 46.2224C107.299 46.4339 107.073 46.5981 106.806 46.7149C106.539 46.8312 106.232 46.8899 105.886 46.8899C105.539 46.8899 105.235 46.8318 104.967 46.7149ZM106.564 46.2099C106.758 46.12 106.918 45.9936 107.047 45.83C107.175 45.6664 107.272 45.4705 107.337 45.2417C107.402 45.0128 107.435 44.7606 107.435 44.485C107.435 44.2094 107.402 43.9571 107.337 43.7282C107.272 43.4994 107.175 43.3035 107.047 43.1399C106.919 42.9763 106.758 42.8499 106.564 42.7601C106.37 42.6702 106.145 42.6252 105.886 42.6252C105.627 42.6252 105.402 42.6702 105.209 42.7601C105.017 42.8499 104.856 42.9763 104.728 43.1399C104.6 43.3035 104.503 43.4994 104.438 43.7282C104.373 43.9571 104.339 44.2094 104.337 44.485C104.337 44.7606 104.369 45.0128 104.433 45.2417C104.498 45.4705 104.594 45.6664 104.723 45.83C104.853 45.9936 105.014 46.12 105.208 46.2099C105.401 46.2997 105.627 46.3447 105.886 46.3447C106.145 46.3447 106.37 46.2997 106.564 46.2099Z" fill="#1D1D1B"/>
<path d="M110.673 46.7934H109.002V42.1753H110.625C110.845 42.1753 111.048 42.1999 111.234 42.249C111.42 42.2981 111.581 42.3718 111.717 42.4701C111.853 42.5683 111.958 42.6923 112.034 42.8421C112.11 42.9919 112.148 43.1681 112.148 43.3712C112.148 43.5227 112.127 43.6581 112.084 43.7768C112.042 43.8954 111.985 43.9979 111.914 44.0847C111.843 44.1716 111.764 44.2417 111.675 44.2962C111.586 44.3507 111.496 44.3909 111.404 44.4166V44.3975C111.505 44.4101 111.608 44.4442 111.714 44.4987C111.82 44.5532 111.916 44.6275 112.003 44.7216C112.09 44.8157 112.16 44.9289 112.214 45.0613C112.269 45.1937 112.296 45.3459 112.296 45.5167C112.296 45.7413 112.255 45.9343 112.173 46.0954C112.091 46.2572 111.977 46.389 111.831 46.4914C111.686 46.5939 111.514 46.67 111.317 46.7191C111.119 46.7682 110.904 46.7928 110.674 46.7928L110.673 46.7934ZM110.635 42.7175H109.577V44.1476H110.734C110.852 44.1476 110.961 44.1333 111.061 44.1045C111.162 44.0757 111.25 44.032 111.324 43.9733C111.399 43.9146 111.457 43.8397 111.499 43.7486C111.541 43.6575 111.562 43.5479 111.562 43.4197C111.562 43.2915 111.54 43.1824 111.495 43.0926C111.45 43.0027 111.386 42.9308 111.304 42.8763C111.222 42.8218 111.124 42.7816 111.01 42.7559C110.897 42.7301 110.772 42.7175 110.635 42.7175H110.635ZM110.673 46.2518C110.821 46.2518 110.958 46.2398 111.084 46.2146C111.21 46.1901 111.32 46.1475 111.414 46.0882C111.508 46.0283 111.581 45.9474 111.635 45.8462C111.688 45.7449 111.715 45.6155 111.715 45.4597C111.715 45.3165 111.688 45.1949 111.635 45.0955C111.581 44.996 111.51 44.9157 111.42 44.8552C111.33 44.7941 111.227 44.7498 111.11 44.7222C110.993 44.6946 110.872 44.6803 110.746 44.6803H109.575V46.2518H110.672H110.673Z" fill="#1D1D1B"/>
<path d="M116.834 46.7897H116.228L114.766 42.5053H114.99L113.528 46.7897H112.921L114.512 42.1716H115.247L116.834 46.7897ZM113.679 45.1733H116.078V45.7089H113.679V45.1733Z" fill="#1D1D1B"/>
<path d="M118.46 46.7934V42.7175H117.049V42.1753H120.433V42.7175H119.038V46.7934H118.46Z" fill="#1D1D1B"/>
<path d="M121.507 46.7934V42.1753H124.428V42.7175H122.081V44.1638H124.044V44.706H122.081V46.2518H124.428V46.794H121.507V46.7934Z" fill="#1D1D1B"/>
<path d="M125.198 46.3285C125.32 46.3584 125.423 46.359 125.508 46.3303C125.592 46.3015 125.662 46.2452 125.718 46.1619C125.774 46.0786 125.816 45.9678 125.846 45.83C125.876 45.6922 125.898 45.5292 125.913 45.3411C125.928 45.153 125.938 44.9409 125.942 44.7042C125.946 44.4682 125.949 44.2099 125.949 43.9296V42.1753H129.04V46.7934H128.463V42.7175H126.488V44.555C126.488 44.9145 126.474 45.2243 126.446 45.4849C126.418 45.7455 126.378 45.9666 126.326 46.1469C126.273 46.3279 126.209 46.4711 126.135 46.5765C126.06 46.6826 125.974 46.7605 125.879 46.8108C125.782 46.8611 125.678 46.8857 125.564 46.8845C125.451 46.8833 125.329 46.8659 125.199 46.8318V46.3285H125.198Z" fill="#1D1D1B"/>
<path d="M130.829 43.8812H132.003C132.253 43.8812 132.476 43.9147 132.67 43.9824C132.865 44.0495 133.028 44.1466 133.161 44.273C133.293 44.3994 133.394 44.5516 133.462 44.7301C133.53 44.9087 133.564 45.1112 133.564 45.3376C133.564 45.5641 133.53 45.7642 133.462 45.944C133.394 46.1237 133.294 46.2765 133.162 46.4023C133.031 46.5287 132.868 46.6252 132.673 46.6929C132.479 46.76 132.255 46.7941 132.003 46.7941H130.255V42.176H130.829V43.8824V43.8812ZM132 46.2513C132.156 46.2513 132.295 46.2304 132.417 46.189C132.539 46.1471 132.642 46.0878 132.725 46.0093C132.808 45.9314 132.872 45.8355 132.916 45.7223C132.959 45.6091 132.981 45.4808 132.981 45.3376C132.981 45.1945 132.959 45.0632 132.916 44.9512C132.872 44.8392 132.808 44.7439 132.725 44.666C132.642 44.5881 132.539 44.5282 132.417 44.4863C132.295 44.4443 132.156 44.424 132 44.424H130.829V46.2519H132V46.2513Z" fill="#1D1D1B"/>
<path d="M134.591 46.7934V42.1753H135.165V44.2117H137.593V42.1753H138.167V46.7934H137.593V44.754H135.165V46.7934H134.591Z" fill="#1D1D1B"/>
<path d="M139.96 43.881H141.134C141.384 43.881 141.607 43.9146 141.801 43.9823C141.995 44.0494 142.159 44.1464 142.291 44.2729C142.424 44.3993 142.524 44.5515 142.593 44.73C142.661 44.9085 142.695 45.111 142.695 45.3375C142.695 45.564 142.661 45.7641 142.593 45.9438C142.524 46.1236 142.424 46.2764 142.293 46.4022C142.161 46.5286 141.998 46.6251 141.804 46.6928C141.61 46.7599 141.386 46.794 141.134 46.794H139.386V42.1759H139.96V43.8822V43.881ZM141.131 46.2512C141.287 46.2512 141.426 46.2302 141.548 46.1889C141.67 46.1469 141.773 46.0876 141.856 46.0091C141.939 45.9313 142.003 45.8354 142.047 45.7222C142.091 45.6089 142.113 45.4807 142.113 45.3375C142.113 45.1943 142.091 45.0631 142.047 44.9511C142.003 44.839 141.94 44.7438 141.856 44.6659C141.773 44.588 141.67 44.5281 141.548 44.4861C141.426 44.4442 141.287 44.4238 141.131 44.4238H139.96V46.2518H141.131V46.2512ZM143.883 46.7934V42.1753H143.309V46.7934H143.883Z" fill="#1D1D1B"/>
<path d="M148.09 46.7935V43.1664L145.675 46.7935H145.101V42.1754H145.675V45.8025L148.09 42.1754H148.664V46.7935H148.09ZM146.906 41.7716C146.748 41.7716 146.601 41.7326 146.467 41.6547C146.332 41.5769 146.226 41.4702 146.148 41.3354C146.07 41.2006 146.031 41.0544 146.031 40.8962H146.493C146.493 40.9711 146.512 41.04 146.549 41.1029C146.586 41.1658 146.637 41.2162 146.7 41.2539C146.763 41.2917 146.832 41.3102 146.907 41.3102C146.982 41.3102 147.054 41.2917 147.117 41.2539C147.18 41.2168 147.23 41.1664 147.266 41.1029C147.303 41.04 147.321 40.9711 147.321 40.8962H147.783C147.783 41.0544 147.744 41.2012 147.666 41.3354C147.588 41.4702 147.482 41.5763 147.347 41.6547C147.212 41.7326 147.066 41.7716 146.908 41.7716H146.906Z" fill="#1D1D1B"/>
<path d="M155.126 46.7934H151.486V42.1753H152.06V46.2512H154.552V42.1753H155.126V46.7934ZM155.072 47.6592V46.7934H154.712V46.2512H155.646V47.6592H155.072Z" fill="#1D1D1B"/>
<path d="M156.479 46.7934V42.1753H159.4V42.7175H157.053V44.1638H159.015V44.706H157.053V46.2518H159.4V46.794H156.479V46.7934Z" fill="#1D1D1B"/>
<path d="M160.491 46.7934V42.1753H161.065V44.2117H163.493V42.1753H164.067V46.7934H163.493V44.754H161.065V46.7934H160.491Z" fill="#1D1D1B"/>
<path d="M166.408 46.7934V42.7175H164.997V42.1753H168.381V42.7175H166.986V46.7934H166.408Z" fill="#1D1D1B"/>
<path d="M169.455 46.7934V42.1753H171.202C171.454 42.1753 171.678 42.2088 171.873 42.2765C172.067 42.3436 172.23 42.4407 172.362 42.5671C172.493 42.6935 172.593 42.8463 172.661 43.0255C172.729 43.2052 172.764 43.4071 172.764 43.6318C172.764 43.8565 172.729 44.0584 172.661 44.2381C172.593 44.4178 172.492 44.5706 172.36 44.6964C172.227 44.8229 172.064 44.9193 171.869 44.9864C171.674 45.0535 171.452 45.0877 171.202 45.0877H170.029V46.794H169.455V46.7934ZM170.029 44.5455H171.199C171.355 44.5455 171.494 44.5245 171.616 44.4832C171.738 44.4412 171.841 44.3819 171.924 44.3034C172.007 44.2255 172.071 44.1303 172.115 44.0182C172.159 43.9062 172.181 43.7774 172.181 43.6318C172.181 43.4862 172.159 43.3604 172.115 43.2471C172.072 43.1339 172.008 43.038 171.924 42.9602C171.841 42.8823 171.738 42.8224 171.616 42.7804C171.495 42.7385 171.356 42.7181 171.199 42.7181H170.029V44.5461V44.5455Z" fill="#1D1D1B"/>
<path d="M178.319 46.7934V43.1663L175.905 46.7934H175.331V42.1753H175.905V45.8024L178.319 42.1753H178.893V46.7934H178.319Z" fill="#1D1D1B"/>
<path d="M184.704 46.7934V43.1663L182.29 46.7934H181.716V42.1753H182.29V45.8024L184.704 42.1753H185.278V46.7934H184.704Z" fill="#1D1D1B"/>
<path d="M187.619 46.7934V42.7175H186.208V42.1753H189.592V42.7175H188.197V46.7934H187.619Z" fill="#1D1D1B"/>
<path d="M84.0769 36.8559C83.2381 36.8559 82.5941 36.6156 82.1447 36.1369C81.6954 35.6582 81.4707 34.9986 81.4707 34.1598V7.15386C81.4707 6.28512 81.7104 5.61888 82.1897 5.15396C82.6684 4.68963 83.328 4.45776 84.1668 4.45776C84.9151 4.45776 85.5071 4.60036 85.9414 4.88435C86.3752 5.16953 86.773 5.65603 87.1325 6.34503L98.2314 26.8803H96.7935L107.892 6.34503C108.252 5.65603 108.641 5.16953 109.061 4.88435C109.48 4.59976 110.064 4.45776 110.813 4.45776C111.651 4.45776 112.296 4.69023 112.745 5.15396C113.195 5.61888 113.419 6.28512 113.419 7.15386V34.1598C113.419 34.9986 113.202 35.6582 112.768 36.1369C112.333 36.6156 111.681 36.8559 110.813 36.8559C109.945 36.8559 109.33 36.6156 108.881 36.1369C108.432 35.6582 108.207 34.9986 108.207 34.1598V13.3549H109.196L99.7592 30.565C99.4597 31.0748 99.1451 31.4487 98.8156 31.6884C98.4855 31.9286 98.0361 32.0478 97.4676 32.0478C96.899 32.0478 96.434 31.9208 96.0746 31.6656C95.7151 31.4116 95.4005 31.0443 95.1309 30.5644L85.6047 13.3094H86.6832V34.1592C86.6832 34.998 86.4657 35.6576 86.0313 36.1363C85.5969 36.615 84.9451 36.8553 84.0769 36.8553V36.8559Z" fill="#274193"/>
<path d="M126.181 36.8557C125.791 36.8557 125.446 36.7952 125.147 36.676C124.848 36.5562 124.593 36.3693 124.383 36.114C124.174 35.86 124.016 35.552 123.911 35.1926C123.806 34.8331 123.754 34.4137 123.754 33.9344V7.19866C123.754 6.32992 123.986 5.6559 124.451 5.17659C124.915 4.69788 125.581 4.45763 126.45 4.45763C127.32 4.45763 127.978 4.69788 128.428 5.17659C128.877 5.6559 129.102 6.32992 129.102 7.19866V28.4529H128.068L145.143 6.12022C145.593 5.52109 146.027 5.09451 146.447 4.83928C146.866 4.58525 147.42 4.45703 148.109 4.45703C148.588 4.45703 149 4.56248 149.345 4.77158C149.688 4.98127 149.958 5.28803 150.153 5.69304C150.348 6.09746 150.446 6.56898 150.446 7.10819V34.0692C150.446 34.9679 150.221 35.6575 149.772 36.1362C149.322 36.6149 148.663 36.8551 147.795 36.8551C146.926 36.8551 146.259 36.6149 145.795 36.1362C145.33 35.6575 145.099 34.9679 145.099 34.0692V12.8155H146.087L129.057 35.1482C128.577 35.748 128.15 36.1817 127.776 36.4513C127.401 36.7209 126.869 36.8557 126.181 36.8557Z" fill="#274193"/>
<path d="M161.049 36.8558C160.33 36.8558 159.753 36.691 159.319 36.3615C158.885 36.032 158.623 35.5904 158.533 35.0362C158.443 34.482 158.548 33.8607 158.848 33.1717L170.71 6.88474C171.099 6.016 171.571 5.3947 172.126 5.02024C172.68 4.64578 173.317 4.45825 174.036 4.45825C174.755 4.45825 175.346 4.64578 175.9 5.02024C176.454 5.3953 176.926 6.0166 177.315 6.88474L189.223 33.1717C189.553 33.8613 189.672 34.4904 189.583 35.059C189.493 35.6281 189.238 36.0703 188.819 36.3843C188.399 36.6988 187.845 36.8564 187.156 36.8564C186.317 36.8564 185.665 36.6539 185.202 36.25C184.737 35.8456 184.326 35.2243 183.966 34.3855L181.045 27.6004L183.472 29.1731H164.509L166.936 27.6004L164.06 34.3855C163.671 35.2549 163.266 35.884 162.847 36.2728C162.427 36.6617 161.828 36.857 161.049 36.857V36.8558ZM173.946 11.0631L167.655 26.0264L166.487 24.5885H181.495L180.371 26.0264L174.036 11.0631H173.946Z" fill="#274193"/>
<path d="M45.0396 9.70483C45.2732 10.0415 47.9675 13.7789 52.8283 13.7789C53.2381 13.7789 57.8448 13.6975 60.617 9.70483" stroke="#7B549E" stroke-width="4.19393" stroke-linecap="round" stroke-linejoin="round"/>
<path d="M36.4277 15.157C36.7477 15.695 42.2225 24.5376 52.8284 24.7413C59.8185 24.8755 66.3772 21.2058 69.9792 15.1588" stroke="#7B549E" stroke-width="4.19393" stroke-linecap="round" stroke-linejoin="round"/>
<path d="M72.7922 21.5903C72.4909 21.8222 69.9038 23.8892 69.9146 27.4612C69.9254 31.05 72.5502 33.1057 72.8497 33.3321" stroke="#4EB2E5" stroke-width="4.19393" stroke-linecap="round" stroke-linejoin="round"/>
<path d="M42.0243 12.0682C42.0392 11.1418 41.3096 10.379 40.3948 10.3643C39.48 10.3496 38.7264 11.0886 38.7115 12.015C38.6966 12.9414 39.4262 13.7043 40.341 13.719C41.2558 13.7337 42.0094 12.9946 42.0243 12.0682Z" fill="#274193"/>
<path d="M46.7496 18.501C47.5053 17.9805 47.6929 16.9415 47.1686 16.1804C46.6443 15.4193 45.6068 15.2243 44.8511 15.7448C44.0955 16.2653 43.9079 17.3042 44.4322 18.0653C44.9564 18.8264 45.994 19.0215 46.7496 18.501Z" fill="#274193"/>
<path d="M53.0479 20.7687C53.9708 20.7661 54.7168 20.0191 54.7143 19.1003C54.7117 18.1814 53.9615 17.4386 53.0387 17.4411C52.1158 17.4437 51.3698 18.1907 51.3723 19.1096C51.3749 20.0285 52.1251 20.7713 53.0479 20.7687Z" fill="#274193"/>
<path d="M61.4586 18.4215C61.9577 17.6437 61.7363 16.6114 60.9641 16.1158C60.1919 15.6202 59.1612 15.849 58.6621 16.6268C58.1629 17.4046 58.3843 18.4369 59.1565 18.9325C59.9288 19.428 60.9594 19.1992 61.4586 18.4215Z" fill="#274193"/>
<path d="M65.5681 13.6919C66.4704 13.5406 67.0777 12.6772 66.9244 11.7635C66.7712 10.8497 65.9155 10.2317 65.0132 10.383C64.1109 10.5343 63.5036 11.3977 63.6569 12.3115C63.8101 13.2252 64.6658 13.8433 65.5681 13.6919Z" fill="#274193"/>
<path d="M34.2621 33.3321C34.5635 33.1003 37.1505 31.0333 37.1397 27.4612C37.129 23.8724 34.5042 21.8168 34.2046 21.5903" stroke="#4EB2E5" stroke-width="4.19393" stroke-linecap="round" stroke-linejoin="round"/>
<path d="M45.0396 46.3717C45.2732 46.035 47.9675 42.2976 52.8283 42.2976C53.2381 42.2976 57.8448 42.3791 60.617 46.3717" stroke="#7B549E" stroke-width="4.19393" stroke-linecap="round" stroke-linejoin="round"/>
<path d="M36.4277 40.9199C36.7477 40.3819 42.2225 31.5393 52.8284 31.3356C59.8185 31.2014 66.3772 34.8711 69.9792 40.9181" stroke="#7B549E" stroke-width="4.19393" stroke-linecap="round" stroke-linejoin="round"/>
<path d="M40.3795 45.7425C41.2944 45.7349 42.0297 44.9776 42.022 44.0511C42.0142 43.1247 41.2663 42.3798 40.3514 42.3875C39.4365 42.3952 38.7011 43.1524 38.7089 44.0789C38.7166 45.0053 39.4646 45.7502 40.3795 45.7425Z" fill="#274193"/>
<path d="M47.1965 39.8534C47.7106 39.0854 47.5093 38.0491 46.7468 37.5386C45.9843 37.0282 44.9494 37.237 44.4353 38.005C43.9212 38.7729 44.1225 39.8093 44.885 40.3197C45.6475 40.8302 46.6824 40.6214 47.1965 39.8534Z" fill="#274193"/>
<path d="M52.9596 38.4486C53.8824 38.4442 54.627 37.6958 54.6227 36.7769C54.6184 35.8581 53.8668 35.1167 52.9439 35.121C52.0211 35.1254 51.2765 35.8738 51.2808 36.7927C51.2851 37.7116 52.0367 38.4529 52.9596 38.4486Z" fill="#274193"/>
<path d="M61.3196 40.2432C62.1159 39.7875 62.3894 38.7678 61.9304 37.9656C61.4714 37.1635 60.4537 36.8827 59.6573 37.3384C58.8609 37.7941 58.5874 38.8138 59.0465 39.616C59.5055 40.4181 60.5232 40.6989 61.3196 40.2432Z" fill="#274193"/>
<path d="M66.9237 44.3337C67.0755 43.4198 66.4669 42.5573 65.5643 42.4074C64.6618 42.2575 63.807 42.8769 63.6552 43.7909C63.5034 44.7049 64.112 45.5673 65.0146 45.7172C65.9171 45.8671 66.7719 45.2477 66.9237 44.3337Z" fill="#274193"/>
<path d="M0 37.2642C0 42.9416 2.84888 47.9498 7.1896 50.9263C7.46939 51.118 7.84864 50.9149 7.84864 50.5752V40.2341C6.27113 36.0642 4.69301 31.8942 3.11549 27.7236C2.35519 28.7452 1.38939 30.2981 0.733938 32.3675C0.536224 32.9924 0 34.821 0 37.2642Z" fill="#274193"/>
<path d="M31.9934 20.2938C31.9934 22.4542 31.8179 24.574 31.4812 26.6386C31.4302 26.9507 31.3757 27.2611 31.317 27.5696C30.4627 32.1117 28.8222 36.3745 26.5419 40.2125C24.548 43.5713 22.0652 46.6041 19.1912 49.2127C19.0647 49.3272 18.9383 49.441 18.8101 49.5536H18.8095C18.7466 49.6105 18.6831 49.6657 18.6202 49.7214C17.8036 50.4349 16.5873 50.4349 15.7713 49.7214C15.7084 49.6663 15.6455 49.6111 15.5826 49.5554H15.582L15.5814 49.5536C15.4646 49.4512 15.3477 49.3475 15.2327 49.2427C15.2309 49.2409 15.2291 49.2391 15.2273 49.2373C12.3419 46.6233 9.84948 43.5821 7.84957 40.2131C5.62439 36.468 4.00793 32.3166 3.13739 27.898C3.07448 27.5804 3.01517 27.2617 2.96065 26.9405C2.59038 24.7807 2.39746 22.5597 2.39746 20.2944C2.39746 17.3484 2.72399 14.4786 3.34169 11.7202C3.66343 10.2829 4.06425 8.87549 4.53936 7.50347C4.60586 7.31175 4.79759 7.19132 4.9983 7.21649C5.9671 7.33572 6.91912 7.51186 7.84957 7.74133C9.27251 8.09062 10.6457 8.56514 11.9578 9.15109C10.5906 9.903 9.40252 10.9395 8.47087 12.1809C8.24859 12.4775 8.04069 12.7854 7.84957 13.1042C6.8604 14.7482 6.29183 16.6744 6.29183 18.7342C6.29183 20.1422 6.55724 21.4878 7.04134 22.7232C7.10125 22.8748 7.16356 23.0252 7.23007 23.1732C7.41161 23.5842 7.6195 23.982 7.84957 24.3643C8.06166 24.7178 8.29353 25.0581 8.54337 25.384C8.90345 25.8519 9.29887 26.2911 9.72725 26.6937C11.6786 28.5318 14.3052 29.6576 17.196 29.6576C20.0869 29.6576 22.7129 28.5312 24.6648 26.6937C25.0615 26.321 25.4299 25.9178 25.7666 25.4894C26.0476 25.1312 26.3077 24.7561 26.5431 24.3643C26.8019 23.9353 27.0314 23.4871 27.2291 23.0216C27.2914 22.8748 27.3514 22.7274 27.4065 22.5777C27.8558 21.3824 28.1003 20.0871 28.1003 18.7342C28.1003 16.6744 27.5317 14.7476 26.5425 13.1042C26.3514 12.7848 26.1435 12.4775 25.9212 12.1809C24.9614 10.9012 23.7272 9.83829 22.3072 9.08219C23.6583 8.47646 25.0746 7.98817 26.5425 7.63348C27.4628 7.40941 28.404 7.23806 29.3626 7.12242C29.5628 7.09846 29.7533 7.21829 29.8204 7.40881C30.3105 8.81078 30.7221 10.2493 31.051 11.7202C31.6687 14.4792 31.9952 17.3484 31.9952 20.2944L31.9934 20.2938Z" fill="#274193"/>
<path d="M22.5278 8.08688C19.8048 9.82497 17.8235 11.0843 17.555 11.2623C17.5119 11.291 17.3765 11.3821 17.1956 11.3821C17.0146 11.3821 16.8774 11.2893 16.8361 11.2623C16.5689 11.0849 14.5893 9.8753 11.8633 8.20671C12.8399 7.728 14.7337 6.95872 17.2321 6.94074C19.6754 6.92337 21.5453 7.63274 22.5278 8.08688Z" fill="#274193"/>
<path d="M27.8594 18.725C27.8594 20.0485 27.6198 21.3157 27.1806 22.4852C27.1267 22.632 27.068 22.7764 27.0068 22.9196C26.8127 23.3749 26.5886 23.8135 26.3358 24.2335C26.1057 24.6169 25.8517 24.9842 25.5767 25.3347C25.2472 25.7535 24.8871 26.1483 24.4995 26.5126C22.5906 28.3106 20.0221 29.4124 17.1948 29.4124C14.3675 29.4124 11.799 28.3106 9.89021 26.5126C9.47142 26.1183 9.08438 25.6888 8.73209 25.2316C8.48764 24.9117 8.26057 24.5792 8.05327 24.2335C7.828 23.8596 7.62489 23.4702 7.44755 23.0681C7.38224 22.9232 7.32173 22.7764 7.26301 22.6278C6.7897 21.4193 6.53027 20.1024 6.53027 18.725C6.53027 16.7095 7.08627 14.8247 8.05387 13.2166C8.2408 12.9045 8.4439 12.6031 8.66139 12.3131C9.57207 11.0987 10.7344 10.0837 12.0717 9.3486H12.0723C14.6084 10.9513 16.4675 12.104 16.7754 12.2784C16.8443 12.3173 16.9959 12.3982 17.1948 12.3982C17.3806 12.3982 17.5268 12.3275 17.6142 12.2784C17.9228 12.1034 19.7322 10.9249 22.1934 9.28149C23.5822 10.0214 24.7895 11.0609 25.7277 12.3131C25.9452 12.6031 26.1483 12.9045 26.3352 13.2166C27.3028 14.8247 27.8588 16.7095 27.8588 18.725H27.8594Z" stroke="#274193" stroke-width="0.599133" stroke-miterlimit="10" stroke-linecap="round"/>
<path d="M22.8328 4.99955L17.3603 6.36857C17.2519 6.39133 17.1374 6.39133 17.029 6.36857L11.5565 4.99955L10.9634 4.85156V8.40622C10.9634 9.15933 11.4918 9.76445 12.1467 9.76445H22.2427C22.8975 9.76445 23.4259 9.15873 23.4259 8.40622V4.85156L22.8328 4.99955Z" fill="#4EB2E5"/>
<path d="M18.9403 21.6995C19.1093 22.0333 19.1123 22.3652 19.1123 22.3652C19.1123 22.6234 19.0422 22.8187 18.9853 22.9619C18.7133 23.6449 18.3993 24.1104 18.0824 24.682C17.9877 24.8528 17.8439 25.1212 17.6822 25.4645L17.4137 25.9797C17.4113 25.9851 17.3484 26.1086 17.2106 26.1205C17.1082 26.1295 17.0087 26.0732 16.962 25.9797L16.702 25.4807L16.2892 24.6874L15.3995 22.9793C15.3485 22.8565 15.2778 22.6408 15.2778 22.3658C15.2778 22.3658 15.2778 22.0255 15.4186 21.7085C15.6655 21.1525 16.3922 20.6582 17.21 20.6696C18.0362 20.681 18.6893 21.2047 18.9403 21.6995Z" fill="#274193"/>
<path d="M14.4728 18.5439C14.9332 17.1278 14.1585 15.6066 12.7424 15.1463C11.3263 14.6859 9.8052 15.4606 9.34482 16.8767C8.88444 18.2927 9.65917 19.8139 11.0752 20.2743C12.4913 20.7346 14.0124 19.9599 14.4728 18.5439Z" stroke="#274193" stroke-width="0.479306" stroke-linecap="round" stroke-linejoin="round"/>
<path d="M25.0119 18.6043C25.5048 17.1992 24.7653 15.6606 23.3602 15.1677C21.9552 14.6749 20.4166 15.4143 19.9237 16.8194C19.4308 18.2245 20.1703 19.7631 21.5754 20.256C22.9804 20.7488 24.519 20.0094 25.0119 18.6043Z" stroke="#274193" stroke-width="0.479306" stroke-linecap="round" stroke-linejoin="round"/>
<path d="M13.2411 17.7116C13.2411 18.445 12.642 19.0441 11.9086 19.0441C11.1753 19.0441 10.5762 18.445 10.5762 17.7116C10.5762 16.9783 11.1699 16.3792 11.9086 16.3792C11.938 16.3792 11.9728 16.3792 12.0015 16.3851C11.9955 16.3851 11.9955 16.3911 11.9955 16.3911C11.8152 16.7111 11.92 17.1185 12.24 17.3048C12.5365 17.4738 12.9032 17.3923 13.1015 17.1305C13.1944 17.3048 13.2411 17.5031 13.2411 17.7122V17.7116Z" fill="#274193"/>
<path d="M23.8002 17.7116C23.8002 18.445 23.2065 19.0441 22.4677 19.0441C21.729 19.0441 21.1353 18.445 21.1353 17.7116C21.1353 16.9783 21.7344 16.3792 22.4677 16.3792C22.5318 16.3792 22.6013 16.3851 22.6654 16.3965C22.4851 16.7165 22.5899 17.1179 22.9099 17.3042C23.1717 17.4498 23.4916 17.4091 23.7013 17.2113C23.7654 17.3629 23.8002 17.5373 23.8002 17.7116Z" fill="#274193"/>
<path d="M26.8338 3.58162L22.8232 4.59295L17.3507 5.97396C17.2423 5.99732 17.1279 5.99732 17.0194 5.97396L11.5469 4.59295L7.53633 3.58162C6.90065 3.41985 6.90065 2.57028 7.53633 2.40851L17.0194 0.0215688C17.1279 -0.0071896 17.2423 -0.0071896 17.3507 0.0215688L26.8332 2.40851C27.4689 2.57028 27.4689 3.41985 26.8332 3.58162H26.8338Z" fill="#4EB2E5"/>
<path d="M34.3906 37.2795C34.3906 42.9497 31.5418 47.9512 27.201 50.9235C26.9212 51.1153 26.542 50.9121 26.542 50.573V40.2458C28.1195 36.0812 29.6976 31.9166 31.2751 27.7515C32.0354 28.7712 33.0012 30.3229 33.6567 32.3894C33.8544 33.013 34.3906 34.8398 34.3906 37.2795Z" fill="#274193"/>
</g>
<defs>
<clipPath id="clip0_1370_2679">
<rect width="189.612" height="51" fill="white"/>
</clipPath>
</defs>
</svg>
