<svg width="30" height="30" viewBox="0 0 30 30" fill="none" xmlns="http://www.w3.org/2000/svg">
<path fill-rule="evenodd" clip-rule="evenodd" d="M15 30C23.2843 30 30 23.2843 30 15C30 6.71573 23.2843 0 15 0C6.71573 0 0 6.71573 0 15C0 23.2843 6.71573 30 15 30ZM14.9998 14.3788L8.79556 10.8889H21.2041L14.9998 14.3788ZM7.88889 19.7778V11.3988L14.7819 15.2761C14.9172 15.3522 15.0824 15.3522 15.2177 15.2761L22.1111 11.3986V19.7778L7.88889 19.7778ZM7.88889 10C7.39797 10 7 10.398 7 10.8889V19.7778C7 20.2687 7.39797 20.6667 7.88889 20.6667H22.1111C22.602 20.6667 23 20.2687 23 19.7778V10.8889C23 10.398 22.602 10 22.1111 10H7.88889Z" fill="#0351C1"/>
</svg>
