<svg width="9" height="14" viewBox="0 0 9 14" fill="none" xmlns="http://www.w3.org/2000/svg">
<path d="M2.93091 1.23369C2.93091 0.94431 3.1655 0.709717 3.45488 0.709717H5.55078C5.84017 0.709717 6.07475 0.94431 6.07475 1.23369V1.75766C6.07475 2.04704 5.84017 2.28164 5.55078 2.28164H3.45488C3.1655 2.28164 2.93091 2.04704 2.93091 1.75766V1.23369Z" fill="#0351C1"/>
<path d="M7.14009 1.08521H1.79556C1.22162 1.08521 0.756348 1.55048 0.756348 2.12442V12.2196C0.756348 12.7936 1.22162 13.2589 1.79556 13.2589H7.14009C7.71403 13.2589 8.1793 12.7936 8.1793 12.2196V2.12442C8.1793 1.55048 7.71403 1.08521 7.14009 1.08521Z" stroke="#0351C1" stroke-width="0.742296"/>
<path d="M2.59229 11.6726H6.34283" stroke="#0351C1" stroke-width="0.625091" stroke-linecap="round"/>
</svg>
