<svg width="13" height="13" viewBox="0 0 13 13" fill="none" xmlns="http://www.w3.org/2000/svg">
<path d="M10.6781 1.80042C11.682 1.80042 12.4959 2.6143 12.4959 3.61828V7.98116C12.4959 8.98514 11.682 9.79903 10.6781 9.79903H8.13304V10.8898H9.22376C9.42456 10.8898 9.58733 11.0525 9.58733 11.2533C9.58733 11.4541 9.42456 11.6169 9.22376 11.6169H4.13373C3.93294 11.6169 3.77016 11.4541 3.77016 11.2533C3.77016 11.0525 3.93294 10.8898 4.13373 10.8898H5.22445V9.79903H2.67944C1.70188 9.79903 0.90454 9.02742 0.863252 8.06002L0.861572 7.98116V3.61828C0.861572 2.6143 1.67546 1.80042 2.67944 1.80042H10.6781ZM7.40589 10.8898V9.79903H5.9516V10.8898H7.40589ZM10.6781 2.52756H2.67944C2.07705 2.52756 1.58872 3.01589 1.58872 3.61828V7.98116C1.58872 8.58355 2.07705 9.07188 2.67944 9.07188H10.6781C11.2804 9.07188 11.7688 8.58355 11.7688 7.98116V3.61828C11.7688 3.01589 11.2804 2.52756 10.6781 2.52756Z" fill="#0351C1"/>
</svg>
