<svg width="30" height="30" viewBox="0 0 30 30" fill="none" xmlns="http://www.w3.org/2000/svg">
<path fill-rule="evenodd" clip-rule="evenodd" d="M15 30C23.2843 30 30 23.2843 30 15C30 6.71573 23.2843 0 15 0C6.71573 0 0 6.71573 0 15C0 23.2843 6.71573 30 15 30ZM13.75 5.9502C13.7173 5.9502 13.6851 5.95228 13.6536 5.95634H11.3749C10.26 5.95634 9.35616 6.86016 9.35616 7.97509V22.4251C9.35616 23.54 10.26 24.4438 11.3749 24.4438H19.0249C20.1398 24.4438 21.0437 23.54 21.0437 22.4251V7.97509C21.0437 6.86016 20.1398 5.95634 19.0249 5.95634H16.8464C16.8149 5.95228 16.7827 5.9502 16.75 5.9502H13.75ZM11.3749 7.01884H13V7.4502C13 7.86441 13.3358 8.2002 13.75 8.2002H16.75C17.1642 8.2002 17.5 7.86441 17.5 7.4502V7.01884H19.0249C19.553 7.01884 19.9812 7.44697 19.9812 7.97509V22.4251C19.9812 22.9532 19.553 23.3813 19.0249 23.3813H11.3749C10.8468 23.3813 10.4187 22.9532 10.4187 22.4251V7.97509C10.4187 7.44697 10.8468 7.01884 11.3749 7.01884ZM12.5158 21.1947C12.2687 21.1947 12.0684 21.395 12.0684 21.6421C12.0684 21.8892 12.2687 22.0895 12.5158 22.0895H17.8842C18.1313 22.0895 18.3316 21.8892 18.3316 21.6421C18.3316 21.395 18.1313 21.1947 17.8842 21.1947H12.5158Z" fill="#0351C1"/>
</svg>
