<svg width="20" height="21" viewBox="0 0 20 21" fill="none" xmlns="http://www.w3.org/2000/svg">
<path fill-rule="evenodd" clip-rule="evenodd" d="M9.9466 0.5H10.0534C12.2007 0.499991 13.8835 0.499981 15.1966 0.676512C16.5405 0.8572 17.601 1.23426 18.4334 2.06664C19.2658 2.89902 19.6428 3.95951 19.8235 5.30345C20 6.61646 20 8.29928 20 10.4466V10.5534C20 12.7007 20 14.3835 19.8235 15.6966C19.6428 17.0405 19.2658 18.101 18.4334 18.9334C17.601 19.7658 16.5405 20.1428 15.1966 20.3235C13.8835 20.5 12.2007 20.5 10.0534 20.5H9.9466C7.79928 20.5 6.11646 20.5 4.80345 20.3235C3.45951 20.1428 2.39902 19.7658 1.56664 18.9334C0.734261 18.101 0.3572 17.0405 0.176512 15.6966C-1.85132e-05 14.3835 -9.16727e-06 12.7007 1.35056e-07 10.5534V10.4466C-9.16727e-06 8.29928 -1.85132e-05 6.61646 0.176512 5.30345C0.3572 3.95951 0.734261 2.89902 1.56664 2.06664C2.39902 1.23426 3.45951 0.8572 4.80345 0.676512C6.11646 0.499981 7.79928 0.499991 9.9466 0.5ZM4.98938 2.05941C3.80016 2.2193 3.08321 2.52339 2.5533 3.0533C2.02339 3.58321 1.7193 4.30016 1.55941 5.48938C1.39683 6.69866 1.39535 8.28769 1.39535 10.5C1.39535 12.7123 1.39683 14.3013 1.55941 15.5106C1.7193 16.6998 2.02339 17.4167 2.5533 17.9467C3.08321 18.4767 3.80016 18.7807 4.98938 18.9406C6.19866 19.1032 7.78769 19.1047 10 19.1047C12.2123 19.1047 13.8013 19.1032 15.0106 18.9406C16.1998 18.7807 16.9167 18.4767 17.4467 17.9467C17.9767 17.4167 18.2807 16.6998 18.4406 15.5106C18.6032 14.3013 18.6047 12.7123 18.6047 10.5C18.6047 8.28769 18.6032 6.69866 18.4406 5.48938C18.2807 4.30016 17.9767 3.58321 17.4467 3.0533C16.9167 2.52339 16.1998 2.2193 15.0106 2.05941C13.8013 1.89683 12.2123 1.89535 10 1.89535C7.78769 1.89535 6.19866 1.89683 4.98938 2.05941ZM10 6.0814C10.3853 6.0814 10.6977 6.39376 10.6977 6.77907V10.211L12.8189 12.3323C13.0913 12.6047 13.0913 13.0464 12.8189 13.3189C12.5464 13.5913 12.1047 13.5913 11.8323 13.3189L9.84726 11.3339C9.57842 11.065 9.44391 10.9306 9.37312 10.7596C9.30233 10.5887 9.30233 10.3986 9.30233 10.0183V6.77907C9.30233 6.39376 9.6147 6.0814 10 6.0814Z" fill="url(#paint0_linear_1179_1237)"/>
<defs>
<linearGradient id="paint0_linear_1179_1237" x1="1.2" y1="0.5" x2="20" y2="21.7" gradientUnits="userSpaceOnUse">
<stop stop-color="#37BCFF"/>
<stop offset="1" stop-color="#4F7DF8"/>
</linearGradient>
</defs>
</svg>
