<svg width="222" height="39" viewBox="0 0 222 39" fill="none" xmlns="http://www.w3.org/2000/svg">
<path d="M0 0H37.8026V19.2519C37.8026 24.1886 35.1726 28.74 30.8964 31.2177L18.9013 38.2835L6.91891 31.2177C2.64277 28.7585 0.0183523 24.1886 0.0183523 19.2519V0H0Z" fill="#FFDD2D"/>
<path fill-rule="evenodd" clip-rule="evenodd" d="M10.1776 10.1308V16.1136C11.0034 15.196 12.49 14.572 14.1784 14.572H16.032V21.5277C16.032 23.3812 15.5365 24.9962 14.7841 25.8955H23.0159C22.2635 24.9962 21.8091 23.3812 21.8091 21.5277V14.572H23.612C25.3188 14.572 26.8174 15.196 27.6249 16.1136V10.1308H10.1776Z" fill="#333333"/>
<path d="M210.822 9.276H206.461V10.8883C200.35 11.0199 196.283 13.6079 196.283 18.1752C196.283 22.7423 200.35 25.1298 206.461 25.2613V26.8737H210.822V25.2613C216.967 25.1298 221.02 22.7423 221.02 18.1752C221.02 13.6079 216.967 11.0199 210.822 10.8883V9.276ZM206.461 21.8359C203.105 21.7043 201.212 20.3273 201.212 18.1752C201.212 16.023 203.098 14.4798 206.461 14.3484V21.8359ZM210.822 14.3484C214.213 14.4798 216.052 16.0299 216.052 18.1752C216.052 20.3203 214.213 21.7043 210.822 21.8359V14.3484Z" fill="#333333"/>
<path d="M184.651 9.276H180.29V10.8883C174.179 11.0199 170.112 13.6079 170.112 18.1752C170.112 22.7423 174.179 25.1298 180.29 25.2613V26.8737H184.651V25.2613C190.796 25.1298 194.849 22.7423 194.849 18.1752C194.849 13.6079 190.796 11.0199 184.651 10.8883V9.276ZM180.29 21.8359C176.934 21.7043 175.041 20.3273 175.041 18.1752C175.041 16.023 176.927 14.4798 180.29 14.3484V21.8359ZM184.651 14.3484C188.042 14.4798 189.881 16.0299 189.881 18.1752C189.881 20.3203 188.042 21.7043 184.651 21.8359V14.3484Z" fill="#333333"/>
<path d="M158.226 9.74672C151.68 9.74672 147.749 13.4421 147.749 18.2099C147.749 22.9778 151.68 26.6731 158.226 26.6731C164.772 26.6731 168.668 22.9778 168.668 18.2099C168.668 13.4421 164.738 9.74672 158.226 9.74672ZM158.226 22.7771C154.966 22.7771 152.884 20.8326 152.884 18.2099C152.884 15.5872 154.966 13.6773 158.226 13.6773C161.486 13.6773 163.568 15.5942 163.568 18.2099C163.568 20.8257 161.451 22.7771 158.226 22.7771Z" fill="#333333"/>
<path d="M135.609 20.1268L141.421 26.1749H147.906L139.809 17.85L147.6 10.1964H141.491L135.615 16.21H134.273V10.1964H129.401V26.1819H134.273V20.1337H135.615L135.609 20.1268Z" fill="#333333"/>
<path d="M120.368 26.1679C121.475 26.1679 122.485 26.0641 123.427 25.8012C125.946 25.0953 127.592 23.047 127.592 20.2582C127.592 17.4694 126.181 15.7601 123.932 14.9159C122.859 14.5145 121.579 14.4799 120.375 14.4799H115.372V10.1826H110.5V26.1679H120.375H120.368ZM119.531 18.2445C120.202 18.2445 120.839 18.2445 121.413 18.4451C122.216 18.715 122.686 19.3862 122.686 20.189C122.686 20.9917 122.216 21.7322 121.441 22.0712C120.901 22.3065 120.368 22.3065 119.524 22.3065H115.358V18.2445H119.524H119.531Z" fill="#333333"/>
<path d="M102.722 20.2275V26.1718H107.592V10.1865H102.722V16.5121H95.0166V10.1865H90.1449V26.1718H95.0166V20.2275H102.722Z" fill="#333333"/>
<path d="M74.6612 19.4832V10.1826H69.7894V26.1679H74.0867L82.3661 16.8674V26.1679H87.2368V10.1826H82.9331L74.6612 19.4832Z" fill="#333333"/>
<path d="M61.5021 26.1716V14.5395H68.3356V10.1776H49.4343V14.5395H56.2678V26.1716H61.5021Z" fill="#333333"/>
</svg>
