<svg width="13" height="13" viewBox="0 0 13 13" fill="none" xmlns="http://www.w3.org/2000/svg">
<path d="M12.241 4.75611C12.1607 4.49189 11.8815 4.34276 11.6172 4.42302C11.353 4.50328 11.2039 4.78254 11.2841 5.04676L12.241 4.75611ZM8.85531 2.08951C9.09889 2.21959 9.40181 2.12757 9.53189 1.88399C9.66197 1.6404 9.56995 1.33748 9.32637 1.2074L8.85531 2.08951ZM4.09023 5.54432C3.88787 5.35642 3.5715 5.36813 3.3836 5.57049C3.1957 5.77285 3.20742 6.08921 3.40977 6.27711L4.09023 5.54432ZM6.5 8.46428L6.15977 8.83068C6.26335 8.92686 6.40279 8.9747 6.5436 8.96238C6.6844 8.95005 6.81341 8.87871 6.8987 8.766L6.5 8.46428ZM12.3987 1.49816C12.5653 1.27796 12.5219 0.96437 12.3017 0.797734C12.0815 0.631098 11.7679 0.674518 11.6013 0.894715L12.3987 1.49816ZM11.2841 5.04676C11.6204 6.1536 11.5624 7.34277 11.1201 8.41166L12.0441 8.79399C12.5749 7.51132 12.6444 6.08432 12.241 4.75611L11.2841 5.04676ZM11.1201 8.41166C10.6779 9.48055 9.87864 10.363 8.85866 10.9087L9.33039 11.7904C10.5544 11.1356 11.5134 10.0767 12.0441 8.79399L11.1201 8.41166ZM8.85866 10.9087C7.83868 11.4544 6.66105 11.6295 5.52641 11.4043L5.3317 12.3851C6.69326 12.6554 8.10642 12.4453 9.33039 11.7904L8.85866 10.9087ZM5.52641 11.4043C4.39178 11.179 3.37035 10.5673 2.63615 9.67343L1.86339 10.3081C2.74441 11.3808 3.97013 12.1149 5.3317 12.3851L5.52641 11.4043ZM2.63615 9.67343C1.90196 8.77951 1.50044 7.65868 1.5 6.5019L0.5 6.50228C0.500528 7.89041 0.982356 9.23541 1.86339 10.3081L2.63615 9.67343ZM1.5 6.5019C1.49956 5.34513 1.90023 4.22399 2.63374 3.32951L1.86049 2.69541C0.980277 3.76878 0.499472 5.11415 0.5 6.50228L1.5 6.5019ZM2.63374 3.32951C3.36725 2.43503 4.38822 1.82256 5.52268 1.59645L5.32722 0.615742C3.96586 0.887071 2.7407 1.62204 1.86049 2.69541L2.63374 3.32951ZM5.52268 1.59645C6.65715 1.37035 7.83491 1.54459 8.85531 2.08951L9.32637 1.2074C8.1019 0.553511 6.68858 0.344414 5.32722 0.615742L5.52268 1.59645ZM3.40977 6.27711L6.15977 8.83068L6.84022 8.09789L4.09023 5.54432L3.40977 6.27711ZM6.8987 8.766L12.3987 1.49816L11.6013 0.894715L6.1013 8.16256L6.8987 8.766Z" fill="url(#paint0_linear_242_113)"/>
<defs>
<linearGradient id="paint0_linear_242_113" x1="10.299" y1="1" x2="-0.0740742" y2="2.33021" gradientUnits="userSpaceOnUse">
<stop stop-color="#4875FD"/>
<stop offset="1" stop-color="#37BCFF"/>
</linearGradient>
</defs>
</svg>
