<svg width="16" height="17" viewBox="0 0 16 17" fill="none" xmlns="http://www.w3.org/2000/svg">
<path fill-rule="evenodd" clip-rule="evenodd" d="M11.7001 4.99976C11.7001 7.04321 10.0436 8.69976 8.0001 8.69976C5.95664 8.69976 4.3001 7.04321 4.3001 4.99976C4.3001 2.9563 5.95664 1.29976 8.0001 1.29976C10.0436 1.29976 11.7001 2.9563 11.7001 4.99976ZM9.58913 9.21116C11.2903 8.56897 12.5001 6.92565 12.5001 4.99976C12.5001 2.51447 10.4854 0.499756 8.0001 0.499756C5.51482 0.499756 3.5001 2.51447 3.5001 4.99976C3.5001 6.92585 4.71019 8.56932 6.4116 9.21136C5.22403 9.38671 4.25029 9.75848 3.45408 10.2539C2.32908 10.9538 1.58132 11.8864 1.08589 12.8108C0.591579 13.7332 0.346214 14.6512 0.223821 15.3356C0.162467 15.6787 0.131576 15.9656 0.116002 16.1683C0.10821 16.2698 0.104236 16.3504 0.102209 16.4068C0.101195 16.4349 0.100668 16.457 0.100393 16.4727L0.100143 16.4912L0.100105 16.4967L0.100098 16.4985V16.4991C0.100098 16.4994 0.100098 16.4996 0.500097 16.4998C0.900097 16.4999 0.900097 16.5 0.900097 16.5002L0.900097 16.5004L0.900097 16.5003L0.900097 16.5002L0.900112 16.4982L0.90027 16.4867C0.900461 16.4758 0.90086 16.4586 0.901691 16.4355C0.903355 16.3893 0.906746 16.3195 0.913653 16.2296C0.927479 16.0496 0.955327 15.7896 1.01133 15.4764C1.12365 14.8483 1.34746 14.0163 1.79101 13.1887C2.23345 12.3631 2.89224 11.5457 3.87671 10.9331C4.85996 10.3214 6.19091 9.89976 8.00107 9.89976C9.81124 9.89976 11.1421 10.3214 12.1251 10.9331C13.1094 11.5456 13.7679 12.3631 14.2101 13.1886C14.6534 14.0163 14.877 14.8482 14.9892 15.4763C15.0451 15.7895 15.0728 16.0495 15.0866 16.2295C15.0935 16.3194 15.0969 16.3892 15.0985 16.4354C15.0989 16.4474 15.0993 16.4578 15.0995 16.4665C15.0997 16.4746 15.0998 16.4813 15.0999 16.4866L15.1001 16.4981L15.1001 16.5001C15.1001 16.4999 15.1001 16.4998 15.5001 16.4998C15.9001 16.4998 15.9001 16.4995 15.9001 16.4993L15.9001 16.4986L15.9001 16.4968L15.9001 16.4913L15.8998 16.4728C15.8995 16.4571 15.899 16.435 15.898 16.4069C15.896 16.3505 15.892 16.2699 15.8843 16.1685C15.8688 15.9657 15.838 15.6788 15.7767 15.3357C15.6545 14.6513 15.4094 13.7333 14.9153 12.8109C14.4201 11.8864 13.6726 10.9539 12.5478 10.2539C11.7514 9.7583 10.7773 9.38642 9.58913 9.21116Z" fill="#9502E3"/>
</svg>
